<svg width="30" height="30" viewBox="0 0 30 30" fill="none" xmlns="http://www.w3.org/2000/svg">
<path d="M11.9472 14.7263C12.6603 16.1842 13.8421 17.3607 15.3033 18.0672C15.4102 18.1178 15.5285 18.1398 15.6465 18.1309C15.7644 18.1219 15.878 18.0825 15.9761 18.0163L18.1276 16.5816C18.2228 16.5182 18.3322 16.4795 18.4461 16.469C18.56 16.4585 18.6747 16.4766 18.7798 16.5217L22.8049 18.2467C22.9416 18.3048 23.0558 18.4057 23.1302 18.5343C23.2045 18.6629 23.2351 18.8122 23.2173 18.9597C23.09 19.9552 22.6043 20.8702 21.851 21.5334C21.0978 22.1966 20.1286 22.5624 19.125 22.5625C16.0253 22.5625 13.0525 21.3311 10.8607 19.1393C8.66886 16.9475 7.4375 13.9747 7.4375 10.875C7.43755 9.87137 7.80342 8.9022 8.46659 8.14893C9.12975 7.39566 10.0448 6.90994 11.0403 6.78272C11.1877 6.76487 11.337 6.79543 11.4656 6.86981C11.5942 6.94418 11.6952 7.05833 11.7533 7.19506L13.4798 11.2236C13.5244 11.3278 13.5426 11.4415 13.5328 11.5544C13.5229 11.6673 13.4852 11.7761 13.4231 11.8709L11.9934 14.0554C11.9284 14.1537 11.8899 14.2672 11.8818 14.3848C11.8737 14.5023 11.8962 14.62 11.9472 14.7263V14.7263Z" stroke="#CB8734" stroke-linecap="round" stroke-linejoin="round"/>
<rect x="0.5" y="0.5" width="29" height="29" rx="1.5" stroke="#CB8734"/>
</svg>
